#!OML:ASF X:\für Bonn\!DataBase\2005_08_11_Bastian_Final\c3d\Bastian.ASF
:FULLY-SPECIFIED
:DEGREES
155
root 23.538 16.4819 -2.33833 347.282 -73.5869 41.4209
lowerback 72.3127 -5.78772 14.9232
upperback 13.2802 1.64064 1.60202
thorax -5.00324 0.209052 -4.51512
lowerneck -2.44103 -9.21253 1.48865
upperneck -28.1817 -12.0042 8.16547
head -7.91692 -7.40364 3.25197
rclavicle 1.90833e-014 3.18055e-015
rhumerus 61.5414 -15.7242 -43.3721
rradius 15.6068
rwrist -2.88896
rhand -30.1889 -3.75095
rfingers 7.12502
rthumb -3.49991 -33.702
lclavicle 1.90833e-014 3.18055e-015
lhumerus -10.974 -30.9946 87.8425
lradius 51.1927
lwrist 30.0728
lhand -12.7612 -12.7704
lfingers 7.12502
lthumb 13.3234 16.7837
rfemur -67.6249 -8.06996 14.5072
rtibia 60.7049
rfoot -12.1182 -3.3167
rtoes 2.48271
lfemur -60.848 -2.38632 -34.2151
ltibia 40.5335
lfoot 1.49907 -2.60806
ltoes -3.63672
156
root 23.5077 16.4646 -2.33559 347.517 -73.5353 41.5275
lowerback 72.4808 -5.76626 14.8571
upperback 13.251 1.65688 1.60191
thorax -5.03062 0.215897 -4.49016
lowerneck -2.3265 -9.20281 1.51908
upperneck -28.3624 -11.9899 8.14686
head -8.00353 -7.40666 3.26073
rclavicle -6.99722e-014 -3.97569e-014
rhumerus 61.7306 -15.9846 -43.4668
rradius 15.5877
rwrist -2.82683
rhand -30.4336 -3.72958
rfingers 7.12502
rthumb -3.73621 -33.6766
lclavicle -6.99722e-014 -3.97569e-014
lhumerus -10.9968 -31.0283 87.9603
lradius 51.0092
lwrist 30.0434
lhand -12.6894 -12.8516
lfingers 7.12502
lthumb 13.3926 16.698
rfemur -68.0164 -7.87474 14.3114
rtibia 61.0201
rfoot -12.2903 -3.61566
rtoes 2.6071
lfemur -61.3627 -2.66 -34.0802
ltibia 41.006
lfoot 1.25404 -2.56888
ltoes -4.02163
157
root 23.4772 16.448 -2.33303 347.806 -73.5202 41.5983
lowerback 72.6234 -5.72431 14.7864
upperback 13.2116 1.68618 1.58304
thorax -5.07145 0.229389 -4.4922
lowerneck -2.15991 -9.19265 1.47436
upperneck -28.5418 -11.952 8.21599
head -8.08737 -7.39748 3.31066
rclavicle -6.36111e-015 -1.90833e-014
rhumerus 61.9258 -16.2804 -43.7888
rradius 15.5642
rwrist -2.58571
rhand -30.6705 -3.61996
rfingers 7.12502
rthumb -3.96493 -33.5628
lclavicle -6.36111e-015 -1.90833e-014
lhumerus -11.0727 -31.1377 88.0334
lradius 50.8788
lwrist 30.081
lhand -12.718 -12.94
lfingers 7.12502
lthumb 13.365 16.6114
rfemur -68.4368 -7.6608 14.157
rtibia 61.3242
rfoot -12.4769 -3.9367
rtoes 2.41187
lfemur -61.9102 -2.89307 -33.9206
ltibia 41.4874
lfoot 1.02018 -2.56246
ltoes -4.20982
158
root 23.4474 16.4315 -2.32991 348.05 -73.5295 41.6544
lowerback 72.8045 -5.67308 14.7116
upperback 13.1713 1.72489 1.56303
thorax -5.10992 0.245683 -4.49617
lowerneck -2.00382 -9.19431 1.4989
upperneck -28.7073 -11.9432 8.22624
head -8.17366 -7.40334 3.3315
rclavicle -4.77083e-014 3.18055e-015
rhumerus 62.0676 -16.5227 -43.9794
rradius 15.5532
rwrist -2.4769
rhand -30.8663 -3.63006
rfingers 7.12502
rthumb -4.15405 -33.5693
lclavicle -4.77083e-014 3.18055e-015
lhumerus -11.1487 -31.1524 88.1343
lradius 50.7146
lwrist 30.0716
lhand -12.6436 -13.054
lfingers 7.12502
lthumb 13.4368 16.4926
rfemur -68.787 -7.4521 14.0275
rtibia 61.6173
rfoot -12.6577 -4.22889
rtoes 2.28647
lfemur -62.3962 -3.12031 -33.7275
ltibia 41.9563
lfoot 0.796089 -2.55402
ltoes -4.69881
159
root 23.4181 16.4153 -2.32709 348.285 -73.5129 41.6995
lowerback 73.0287 -5.65048 14.6501
upperback 13.0835 1.75909 1.5239
thorax -5.19743 0.258954 -4.52267
lowerneck -1.8438 -9.19339 1.52132
upperneck -28.7907 -11.9297 8.22642
head -8.23276 -7.40033 3.34355
rclavicle 5.40694e-014 -1.27222e-014
rhumerus 62.1057 -16.7164 -44.1722
rradius 15.5834
rwrist -2.4278
rhand -31.0931 -3.56277
rfingers 7.12502
rthumb -4.373 -33.4976
lclavicle 5.40694e-014 -1.27222e-014
lhumerus -11.3375 -31.1988 88.2253
lradius 50.6632
lwrist 30.1525
lhand -12.5482 -13.1851
lfingers 7.12502
lthumb 13.5287 16.3555
rfemur -69.1048 -7.24922 13.876
rtibia 61.9037
rfoot -12.8529 -4.54082
rtoes 2.05392
lfemur -62.8561 -3.35298 -33.5448
ltibia 42.4291
lfoot 0.537733 -2.60251
ltoes -5.48882
160
root 23.3901 16.4006 -2.32302 348.563 -73.4959 41.6891
lowerback 73.2385 -5.63948 14.5855
upperback 12.997 1.7762 1.48541
thorax -5.28594 0.26433 -4.54099
lowerneck -1.76011 -9.18749 1.50042
upperneck -28.7414 -11.9047 8.25912
head -8.22678 -7.3849 3.35762
rclavicle 5.725e-014 3.81667e-014
rhumerus 62.2497 -16.9493 -44.6405
rradius 15.5681
rwrist -2.05318
rhand -31.2739 -3.52857
rfingers 7.12502
rthumb -4.54764 -33.4598
lclavicle 5.725e-014 3.81667e-014
lhumerus -11.592 -31.2089 88.3128
lradius 50.705
lwrist 30.2046
lhand -12.5149 -13.2308
lfingers 7.12502
lthumb 13.5608 16.3076
rfemur -69.4107 -7.06431 13.7399
rtibia 62.1766
rfoot -13.027 -4.81355
rtoes 2.07003
lfemur -63.2975 -3.55523 -33.3722
ltibia 42.8859
lfoot 0.317055 -2.71403
ltoes -6.45132
161
root 23.3614 16.3852 -2.31993 348.959 -73.5014 41.5543
lowerback 73.4692 -5.63337 14.5411
upperback 12.8824 1.80542 1.41276
thorax -5.40083 0.276911 -4.61038
lowerneck -1.63923 -9.16134 1.53715
upperneck -28.7252 -11.8433 8.29077
head -8.24458 -7.35738 3.3655
rclavicle 6.04305e-014 -1.90833e-014
rhumerus 62.3241 -17.1824 -45.2126
rradius 15.6274
rwrist -1.69442
rhand -31.4126 -3.47046
rfingers 7.12502
rthumb -4.68158 -33.3987
lclavicle 6.04305e-014 -1.90833e-014
lhumerus -11.8854 -31.1641 88.376
lradius 50.7563
lwrist 30.1899
lhand -12.4078 -13.2871
lfingers 7.12502
lthumb 13.664 16.2444
rfemur -69.7064 -6.85215 13.6472
rtibia 62.445
rfoot -13.2132 -5.11943
rtoes 1.8412
lfemur -63.7442 -3.7658 -33.124
ltibia 43.3407
lfoot 0.0918221 -2.80465
ltoes -7.43474
